<?xml version="1.0" encoding="iso-8859-1"?>
<!-- Generator: Adobe Illustrator 19.0.0, SVG Export Plug-In . SVG Version: 6.00 Build 0)  -->
<svg version="1.1" id="Layer_1" xmlns="http://www.w3.org/2000/svg" xmlns:xlink="http://www.w3.org/1999/xlink" x="0px" y="0px"
	 viewBox="0 0 512 512" style="enable-background:new 0 0 512 512;" xml:space="preserve">
<path style="fill:#B3E5BD;" d="M71.45,18.801c-13.486,13.477-31.475,31.481-43.45,43.446L134.945,169.19
	c8.644-8.644,35.668-35.669,43.446-43.445c6.33-6.328,6.33-16.589,0-22.918L94.362,18.801C88.037,12.473,77.777,12.473,71.45,18.801
	z"/>
<path style="fill:#92CC9B;" d="M43.722,76.435c10.046-10.033,28.373-28.374,43.45-43.445c4.88-4.882,12.098-5.981,18.047-3.333
	L94.362,18.801c-6.325-6.328-16.585-6.328-22.912,0c-13.486,13.477-31.475,31.481-43.45,43.446L134.945,169.19l0.77-0.769
	L43.722,76.435z"/>
<g>
	
		<rect x="132.017" y="80.257" transform="matrix(0.707 0.7072 -0.7072 0.707 125.1604 -63.9469)" style="fill:#C6F4CE;" width="15.478" height="77.643"/>
	
		<rect x="102.117" y="50.362" transform="matrix(-0.7072 -0.707 0.707 -0.7072 124.4939 229.9234)" style="fill:#C6F4CE;" width="15.478" height="77.643"/>
	
		<rect x="72.21" y="20.472" transform="matrix(-0.7071 -0.7071 0.7071 -0.7071 94.5541 157.7529)" style="fill:#C6F4CE;" width="15.477" height="77.643"/>
</g>
<g>
	<path style="fill:#B1E8B9;" d="M101.931,26.368l-1.955,1.954c1.793,0.151,3.57,0.589,5.244,1.334L101.931,26.368z"/>
	
		<rect x="45.141" y="85.824" transform="matrix(-0.7071 -0.7071 0.7071 -0.7071 29.202 184.8285)" style="fill:#B1E8B9;" width="15.478" height="1.086"/>
</g>
<path style="fill:#B0DCF7;" d="M451.361,112.425l56.862-56.86c4.941-4.945,4.943-12.965,0-17.91L474.644,4.077
	c-4.945-4.947-12.966-4.942-17.909,0.002l-56.861,56.859L451.361,112.425z"/>
<path style="fill:#8DC1DB;" d="M483.844,27.836c2.829-2.828,6.512-4.269,10.22-4.338L474.644,4.077
	c-4.945-4.947-12.966-4.942-17.909,0.002l-56.861,56.859l25.432,25.433L483.844,27.836z"/>
<rect x="420.53" y="37.979" transform="matrix(0.7071 -0.7071 0.7071 0.7071 75.6718 331.4594)" style="fill:#71BDE2;" width="34.825" height="72.813"/>
<rect x="407.474" y="43.342" transform="matrix(-0.7071 0.7071 -0.7071 -0.7071 768.6904 -195.751)" style="fill:#48A6CC;" width="34.825" height="35.968"/>
<path style="fill:#B0DCF7;" d="M473.687,132.686l-94.522-94.522c-3.577-3.574-9.318-3.725-13.072-0.341l-98.127,88.39l0,0
	C-17.213,383.103,0.372,365.548,0.221,371.381C0.156,373.986,1.158,376.5,3,378.345l130.505,130.504
	c3.851,3.847,10.13,3.683,13.772-0.358l197.192-218.906h0.001c43.014-47.75,34.293-38.069,55.404-61.507l0,0
	c1.336-1.482,73.18-81.24,74.153-82.319C477.41,142.003,477.259,136.26,473.687,132.686z"/>
<path style="fill:#8DC1DB;" d="M382.287,50.859c2.02-1.82,4.61-2.621,7.136-2.437l-10.259-10.259
	c-3.577-3.574-9.318-3.725-13.072-0.341C-22.88,388.2,0.378,365.304,0.221,371.381c-0.129,5.124,2.564,6.748,11.704,15.888
	C12.795,382.193-8.981,403.316,382.287,50.859z"/>
<path style="fill:#579ADF;" d="M447.387,175.334L336.515,64.463l-97.745,88.048l0,0l-83.343,75.078l0,0L51.983,320.769
	c32.386,32.387,105.111,105.116,139.098,139.099l115.667-128.407l0,0C313.742,323.698,440.405,183.085,447.387,175.334z"/>
<path style="fill:#3C80BC;" d="M51.983,320.77l14.532,14.533c9.51-8.567,186.332-167.845,284.534-256.307l-14.535-14.533
	C328.563,71.626,57.784,315.544,51.983,320.77z"/>
<path style="fill:#69ACE8;" d="M308.344,89.837c-10.455,67.103,4.358,135.682,42.625,192.533
	c3.342-3.71,91.055-101.084,96.418-107.036L336.515,64.463L308.344,89.837z"/>
<path style="fill:#549DD3;" d="M305.356,120.159l45.694-41.162l-14.535-14.533L308.344,89.84
	C306.796,99.778,305.792,109.895,305.356,120.159z"/>
<path style="fill:#6DC180;" d="M241.823,226.739c1.228-1.223,2.545-2.288,3.92-3.238l-83.839-29.417L29.031,61.215
	c-6.59-6.591-17.274-6.593-23.869-0.002c-6.593,6.593-6.593,17.28,0.002,23.872C151.371,231.292,141.922,222.851,147.1,224.666
	l87.943,30.86C231.795,245.736,234.035,234.526,241.823,226.739z"/>
<path style="fill:#52A35D;" d="M235.142,237.453c-86.92-30.497-82.413-28.272-86.136-31.989L13.419,69.877
	c-3.12-3.118-4.745-7.154-4.913-11.238c-9.633,5.714-11.027,18.764-3.342,26.446C151.371,231.292,141.922,222.851,147.1,224.666
	l87.943,30.86C233.099,249.661,233.137,243.294,235.142,237.453z"/>
<g>
	<path style="fill:#71BDE2;" d="M42.918,377.143l-20.559,20.56l10.943,10.944l20.559-20.56c3.022-3.022,3.022-7.921,0-10.944
		C50.841,374.122,45.938,374.121,42.918,377.143z"/>
	<path style="fill:#71BDE2;" d="M69.865,404.094l-20.558,20.557l10.944,10.943l20.557-20.557c3.022-3.022,3.022-7.921,0-10.944
		C77.788,401.075,72.886,401.073,69.865,404.094z"/>
	<path style="fill:#71BDE2;" d="M96.811,431.041l-20.559,20.557l10.945,10.944l20.556-20.556c3.022-3.022,3.022-7.922,0-10.944
		C104.734,428.02,99.832,428.02,96.811,431.041z"/>
	<path style="fill:#71BDE2;" d="M123.76,457.99l-20.557,20.557l10.943,10.943l20.556-20.556c3.022-3.022,3.022-7.922,0-10.944
		C131.682,454.969,126.78,454.969,123.76,457.99z"/>
</g>
<path style="fill:#64B573;" d="M503.755,448.868c-10.703-10.702-210.553-210.551-223.162-223.16
	c-10.989-10.992-28.809-10.992-39.801,0c-10.99,10.991-10.986,28.809,0.002,39.8l223.162,223.161
	c10.993,10.993,28.807,10.995,39.8,0.002C514.748,477.68,514.748,459.862,503.755,448.868z"/>
<path style="fill:#53A55E;" d="M484.371,468.63L261.21,245.469c-7.365-7.365-9.788-17.793-7.285-27.18
	c-4.812,1.188-9.375,3.66-13.135,7.421c-10.99,10.991-10.986,28.809,0.002,39.8L463.955,488.67
	c15.36,15.361,41.53,8.197,47.082-12.617C501.784,478.335,491.603,475.86,484.371,468.63z"/>
<rect x="344.789" y="241.059" transform="matrix(-0.7071 0.7071 -0.7071 -0.7071 889.6779 347.2101)" style="fill:#B3E5BD;" width="56.281" height="233.609"/>
<rect x="348.845" y="250.844" transform="matrix(-0.7071 0.7071 -0.7071 -0.7071 879.9011 370.8305)" style="fill:#97D3A1;" width="28.608" height="233.609"/>
<g>
</g>
<g>
</g>
<g>
</g>
<g>
</g>
<g>
</g>
<g>
</g>
<g>
</g>
<g>
</g>
<g>
</g>
<g>
</g>
<g>
</g>
<g>
</g>
<g>
</g>
<g>
</g>
<g>
</g>
</svg>
